# xmcd CD database file
#
# Track frame offsets:
#	150
#	12904
#	26178
#	38783
#	51378
#	63104
#	76077
#	95424
#	112360
#	129297
#	181780
#	197286
#	214806
#	237367
#	273173
#	291452
#	307356
#	328222
#
# Disc length: 4668 seconds
#
# Revision: 0
# Processed by: cddbd v1.5.2PL0 Copyright (c) Steve Scherf et al.
# Submitted via: CDex 1.70beta1
#
DISCID=08123a12
DTITLE=Humphrey Lyttleton - 1955 - 1956 CD 1
DYEAR=1900
DGENRE=Jazz
TTITLE0=The Fish Seller
TTITLE1=The Glory Of Love
TTITLE2=PTQ Rag
TTITLE3=Heat Wave
TTITLE4=C'Est Filon
TTITLE5=Ce Mossieu Que Parle
TTITLE6=One Sweet Letter From You
TTITLE7=Beale Street Blues
TTITLE8=Dallas Blues
TTITLE9=Blues Excursion
TTITLE10=Shim-Me-Sha-Wabble
TTITLE11=Sweet Muscatel
TTITLE12=The Lady In Red (Version 1)
TTITLE13=Dinah Lou
TTITLE14=O Sole Mio
TTITLE15=Avalon
TTITLE16=Squeeze Me
TTITLE17=Lightly and Politely
EXTD=
EXTT0=
EXTT1=
EXTT2=
EXTT3=
EXTT4=
EXTT5=
EXTT6=
EXTT7=
EXTT8=
EXTT9=
EXTT10=
EXTT11=
EXTT12=
EXTT13=
EXTT14=
EXTT15=
EXTT16=
EXTT17=
PLAYORDER=
